<?xml version="1.0"?>
<svg width="880" height="809" xmlns="http://www.w3.org/2000/svg" xmlns:svg="http://www.w3.org/2000/svg" version="1.1" xml:space="preserve">
 <desc>Created with Fabric.js 5.2.4</desc>

 <g class="layer">
  <title>Layer 1</title>
  <path d="m292.39,659.45c-7.35,-1.47 -19.11,-4.7 -25.14,-7.06c-5.44,-2.06 -8.82,-7.94 -5.88,-10.29c1.32,-1.18 42.48,-1.76 137,-1.91c74.38,-0.15 147.59,-0.88 163.02,-1.62c19.26,-0.88 29.55,-0.74 33.08,0.29c2.79,0.88 7.94,2.21 11.47,3.09c3.38,0.88 6.17,2.5 6.17,3.53c0,1.03 -4.85,4.12 -10.58,6.76c-11.91,5.44 13.23,4.7 -226.09,6.47c-39.25,0.29 -72.62,0.88 -74.24,1.18c-1.62,0.29 -5.59,0.15 -8.82,-0.44l0.01,0z" fill="#000000" fill-rule="nonzero" id="svg_2" stroke-dashoffset="0" stroke-miterlimit="4"/>
  <path d="m210.83,608.77c-4.41,-3.68 -8.09,-7.5 -8.09,-8.53c0,-1.32 48.51,-1.76 234.76,-1.76c129.07,0 235.2,0.44 235.79,1.03c1.47,1.47 -3.09,6.32 -10.73,11.61c-6.17,4.26 -6.17,4.26 -224.91,4.26c-218.74,0 -218.74,0 -226.82,-6.62l0,0.01z" fill="#000000" fill-rule="nonzero" id="svg_32" stroke-dashoffset="0" stroke-miterlimit="4"/>
  <path d="m166.07,568.57c-4.12,-4.12 -6.76,-7.94 -6.17,-8.53c1.03,-1.03 527.88,-3.23 546.69,-2.21c4.56,0.29 8.38,0.88 8.38,1.47c-0.15,0.59 -3.09,4.26 -6.76,8.23c-6.62,7.35 -6.62,7.35 -270.77,7.94c-264.16,0.59 -264.16,0.59 -271.36,-6.91l-0.01,0.01z" fill="#000000" fill-rule="nonzero" id="svg_40" stroke-dashoffset="0" stroke-miterlimit="4"/>
  <path d="m137.63,531.12c-3.09,-5 -7.79,-12.5 -10.29,-16.46c-19.4,-29.69 -37.49,-82.76 -42.92,-126.13c-5.73,-46.01 -5.42,-65.61 10.14,-121.13c32.23,-91.28 34.75,-35.44 36.17,-29.06c17.25,72.38 21.29,77.93 28.53,83.14c4.75,1.13 9.7,-0.88 14.41,-1.91c8.53,-1.62 8.53,-1.62 7.5,-10.14c-0.31,-53.8 -7.21,-41.57 -0.31,-64.67c6.08,-11.46 14.68,-13.94 19.99,-11.03c16.64,52.82 33.53,94.69 39.7,107.77c3.68,7.64 7.79,15.29 9.11,16.91c2.79,3.38 2.94,4.7 -2.21,-15.44c-8.23,-74.82 -4.09,-55.22 -6.76,-79.82c-2.05,-17.94 -2.79,-18.97 -11.9,-26.32c-5.59,-4.41 -13.67,-10.44 -18.38,-13.52c-6.76,-4.56 -8.97,-7.2 -12.2,-14.26c-6.62,-16.62 -7.94,-21.17 -9.56,-24.55c-1.62,-3.38 -3.09,-7.64 -3.38,-9.41c-0.29,-3.23 4.13,-1.61 12.51,-1.61c103.49,46.74 100.52,33.91 116.28,49.08c15.76,15.18 17.72,23.55 9.56,-12.54c-8.17,-36.09 -48.57,-41.84 -97.81,-40.22c-49.24,1.62 -26.57,5 -12.22,-6.18c14.35,-11.18 137.2,-16.34 147.08,-7.34c9.88,9 0.88,-2.5 0.29,-2.94c-0.59,-0.44 -3.97,-3.23 -7.64,-6.17c-8.09,-6.32 -20.29,-13.23 -30.28,-17.2c-27.05,-10.44 -74.24,-10.29 -97.61,0.29c-9.7,4.56 -9.7,4.56 -7.35,2.06c1.18,-1.32 8.82,-5.73 16.91,-10c12.94,-6.76 29.84,-16.91 52.48,-31.46c3.82,-2.35 10.44,-6.32 14.7,-8.67c7.5,-4.12 7.64,-4.26 4.12,-5.59c-7.79,-2.94 -27.64,-4.12 -38.51,-2.5c-14.55,2.21 -31.75,9.11 -40.57,16.02c-7.64,6.17 -9.11,6.91 -9.11,4.41c0,-1.32 12.79,-14.41 19.99,-20.43c6.62,-5.59 26.9,-20.14 35.72,-25.58c5.44,-3.38 11.17,-6.91 12.79,-7.94c9.11,-5.73 33.52,-16.32 52.04,-22.49c54.68,-18.52 110.4,-21.9 166.4,-10.44c24.55,5.15 54.83,15.88 80.7,28.81c12.2,6.03 46.01,27.2 44.98,28.08c-0.29,0.29 -3.68,-0.59 -7.64,-1.91c-9.26,-2.94 -39.25,-3.53 -45.42,-0.74c-4.12,1.76 -4.12,1.76 6.62,9.7c24.84,18.23 44.1,30.28 57.62,36.31c7.79,3.53 14.26,6.91 14.26,7.64c0,0.74 -0.88,0.88 -1.76,0.44c-23.81,-9.7 -66.74,-13.38 -90.11,-7.5c-15.29,3.82 -46.31,20.29 -46.31,24.55c60.82,4.16 57.1,2.51 94.47,8.29c69.73,14.98 73.84,16.73 75.32,19.98c-62.28,-0.26 -58.96,-0.96 -80.52,8.28c-37.14,20.32 -29.01,30.52 -42.85,61.44c-5.04,10.86 0.61,10.7 3.53,8.97c29.41,-13.25 19.61,-8.22 29.19,-10.27c6.32,0.31 15.77,-17.79 23.27,-25.01c15.58,-14.58 32.24,-24.61 35.04,-25.35c9.41,-5 11.62,-2.43 13.38,-2.43c4.56,0 5.03,1.66 2.21,4.41c-55.68,50.64 -46.74,49.24 -38.36,51.3c15.83,4.72 23.52,12.64 23.52,13.38c2.09,3.49 5.44,1.47 9.41,-2.21c2.21,-2.06 4.56,-3.68 5.15,-3.68c12.35,-5.29 17.34,-15.86 18.53,-10.29c11.62,34.12 11.32,36.77 11.91,38.82c2.94,22.93 2.94,21.46 3.29,27.56c3.97,21.03 1.26,25.81 -1.97,32.87c-1.03,2.5 -2.35,6.47 -2.94,8.82c-1.03,5.15 -7.2,21.9 -11.47,31.61c-11.76,26.75 -18.67,38.66 -20.87,36.6c-0.29,-0.44 -7.35,-15.29 -15.44,-32.93c-22.34,-48.36 -23.23,-47.04 -5.15,6.76c9.41,27.78 12.2,38.07 11.32,40.28c-2.65,5.88 -23.52,32.63 -34.99,44.69c-11.47,12.35 -11.61,12.35 -6.47,11.32c2.79,-0.59 10.44,-2.21 16.91,-3.53c11.76,-2.5 11.76,-2.5 22.93,-16.91c6.17,-7.94 11.76,-14.55 12.5,-14.41c0.59,0 2.79,6.17 4.85,13.67c3.82,13.67 3.82,13.67 10.44,13.08c3.68,-0.29 7.79,-0.59 9.11,-0.74c3.38,0 3.09,-0.88 -7.2,-22.49c-4.56,-9.56 -8.23,-17.93 -8.09,-18.82c0,-0.74 3.68,-8.09 8.23,-16.17c9.26,-16.61 18.82,-37.78 25.87,-57.33c5,-13.82 7.79,-32.41 9.7,-39.4c23.62,-70.35 23.63,-71.6 26.42,-77.33c19.83,10.85 23.78,20.98 28.66,34.86c3.35,10.53 4.26,14.99 7.2,33.37c5,31.75 3.97,81.14 -2.21,111.28c-2.5,11.91 -10.44,42.48 -12.5,48.22c-6.32,17.79 -14.41,36.6 -18.67,43.66c-2.94,4.7 -7.35,12.35 -9.85,17.05c-2.5,4.7 -5.73,9.85 -7.2,11.47c-2.5,2.79 -7.2,2.79 -214.62,2.79c-116.57,0 -248.87,0.44 -293.85,1.03c-81.88,0.88 -81.88,0.88 -87.47,-8.38l-0.02,-0.1l0,0.01zm470.99,-36.46c3.09,-1.03 2.79,-1.62 -5.29,-10.73c-13.82,-15.88 -34.4,-41.16 -33.81,-41.6c0.29,-0.29 5.59,-1.91 11.61,-3.68c19.7,-5.88 26.31,-12.5 24.4,-24.26c-0.59,-3.38 -1.18,-8.53 -1.47,-11.61c-0.29,-3.68 -1.91,-7.06 -4.7,-10c-3.53,-3.68 -5.15,-4.26 -11.61,-4.26c-4.12,0 -12.94,1.32 -19.55,3.09c-10.73,2.65 -12.2,2.79 -16.17,0.74c-4.56,-2.35 -13.52,-11.76 -13.52,-14.11c0,-2.06 8.09,-5.88 57.33,-27.05c48.51,-20.87 64.68,-29.99 79.38,-44.69c12.2,-12.35 16.91,-24.84 13.82,-36.46c-1.03,-4.12 -12.35,-10.14 -23.52,-12.79c-4.7,-1.18 -12.79,-4.56 -17.64,-7.5c-10,-5.73 -22.93,-9.7 -32.19,-9.7c-13.97,0.15 -42.34,8.53 -72.03,21.32c-8.09,3.38 -19.7,8.23 -25.73,10.73c-6.03,2.35 -19.4,8.38 -29.55,13.23c-15.73,7.64 -19.26,8.82 -24.26,8.09c-5,-0.59 -8.09,0.44 -20.87,6.76c-14.99,7.5 -14.99,7.5 -19.11,4.7c-15.73,-11.03 -92.44,-55.12 -144.35,-82.91c-51.91,-27.79 -44.69,-24.4 -57.04,-31.75c-12.35,-7.35 -22.79,-13.38 -23.23,-13.38c-0.29,0 -0.44,0.44 -0.29,1.18c0,0.59 -0.29,2.21 -0.88,3.53c-0.74,1.62 2.65,15.76 7.36,25.02c169.22,143.37 177.79,135.4 155.39,142.02c-22.4,6.62 -39.4,17.35 -56.15,24.11c-10,4.12 -20.58,8.67 -23.52,10.29c-4.85,2.65 -8.97,4.85 -21.32,11.03c-4.41,2.06 -4.41,2.06 -36.02,-29.4c-17.49,-17.35 -33.37,-32.63 -35.43,-33.96c-4.41,-2.94 -11.76,-3.09 -18.38,-0.29c-7.2,3.09 -8.67,6.62 -5.73,14.41c1.18,3.53 5.44,18.82 9.41,33.96c3.97,15.14 8.23,31.02 9.56,34.99c1.47,4.12 2.21,7.64 1.91,7.94c-0.15,0.29 -6.03,-1.18 -12.94,-3.23c-6.91,-1.91 -20.29,-5.88 -29.99,-8.67c-9.56,-2.79 -17.93,-5.44 -18.67,-5.88c-1.47,-0.88 -17.49,3.53 -20.14,5.73c-2.06,1.62 24.99,16.32 59.24,32.19c10.58,4.85 19.26,8.97 19.55,9.26c0.29,0.29 -0.88,5.29 -2.65,11.03c-3.68,12.35 -2.94,13.67 6.62,12.35c28.67,-4.12 102.75,-16.32 119.66,-19.85c27.34,-5.73 78.65,-21.9 142.74,-45.13c4.41,-1.62 9.56,-3.23 11.32,-3.53c5.29,-0.74 74.68,48.36 108.93,77.18c15.14,12.79 15.14,12.79 25.73,12.64c5.88,-0.15 12.05,-0.59 13.82,-1.03l-0.03,-0.07zm-137,-50.13c1.76,-2.94 -3.38,-3.53 -30.72,-3.53c-27.34,-0.15 -35.57,0.74 -33.96,3.53c1.18,1.76 63.5,1.76 64.68,0z" fill="#000000" id="svg_46" stroke="null" stroke-dasharray="null" stroke-linecap="null" stroke-linejoin="null" stroke-opacity="null" stroke-width="null"/>
  <path d="m215.24,434.39c4.12,-8.37 21.61,-22.63 29.26,-25.72c7.06,-2.65 7.06,-2.65 -25.43,-34.99c-17.79,-17.79 -34.25,-32.93 -36.46,-33.66c-4.41,-1.62 -5.44,-5.15 -1.91,-6.47c1.18,-0.44 3.38,0 5,1.18c4.26,3.09 23.67,21.9 47.04,45.72c19.7,20.14 24.99,23.96 27.34,20.14c1.32,-2.21 26.31,-13.52 64.68,-29.4c12.2,-5 28.96,-12.05 37.34,-15.73c10.29,-4.41 16.32,-6.32 18.67,-5.73c44.41,14.73 -115.25,49.22 -147.02,72.6c-6.41,2.15 -18.51,16.34 -18.51,12.08l0,-0.01l0,0l0,0l0,0l0,0l0,0l0,0l0,0l0,0l0,0l0,0l0,0l0,0l0,0l0,0l0,0l0,0l0,0l0,0l0,0l0,0l0,0l0,0l0,0l0,0l0,0l0,0l0,0l0,0l0,0l0,0l0,0l0,0l0,0l0,-0.01z" fill="#000000" fill-rule="nonzero" id="svg_48" stroke-dashoffset="0" stroke-miterlimit="4"/>
  <path d="m582.29,423.56c-1.91,-2.94 -5,-16.91 -5.15,-23.52c0,-0.74 -1.32,-0.15 -2.94,1.32c-8.67,5.15 -11.47,4.41 -16.32,7.94c-2.94,2.21 -5.29,2.94 -7.94,2.21c-5.73,-1.47 -4.41,-4.85 3.38,-8.09c3.82,-1.62 10.44,-4.7 14.7,-6.76c26.1,-11.14 30.51,-2.28 32.86,3.5c-6.97,-5.63 -10.65,-6.91 -15.66,-5.12c-6.62,1.18 -3.38,26.17 3.53,26.17c1.62,0 4.85,-1.76 7.35,-3.82c5.44,-4.56 5.88,-2.94 1.18,3.97c-4.41,6.62 -11.47,7.64 -14.99,2.21l0,-0.01z" fill="#000000" fill-rule="nonzero" id="svg_50" stroke-dashoffset="0" stroke-miterlimit="4"/>
  <g id="svg_51" transform="matrix(2.94, 0, 0, 2.94, 694.47, 475.22)"/>
  <path d="m461.67,350.86c-6.32,-2.94 -12.64,-12.5 -14.7,-21.9c-0.44,-2.65 -1.47,-5.15 -2.21,-5.59c-0.59,-0.44 -4.7,0.88 -9.11,2.94c-9.7,4.56 -11.47,4.56 -11.47,0.15c0,-5.59 4.7,-10 18.82,-17.49c16.91,-8.97 27.05,-9.56 18.08,-1.18c-4.12,3.97 -7.5,12.35 -7.5,18.96c0,4.85 5.15,14.11 9.41,16.91c13.23,8.67 35.49,-5.75 21.4,-27.17c-11.77,-17.27 -3.05,-10.07 4.52,-1.44c4.4,6.24 3.62,19.06 1.56,25.67c-3.53,10.73 -17.35,15.58 -28.81,10.14l0.01,0z" fill="#000000" fill-rule="nonzero" id="svg_54" stroke-dashoffset="0" stroke-miterlimit="4"/>
  <path d="m481.3,294.9c36.59,-18.9 103.42,-43.71 104.75,-44.3c7.06,-3.53 23.96,-6.17 36.16,-5.59c11.03,0.59 21.02,3.09 19.26,4.85c-0.29,0.29 -6.47,1.32 -13.67,2.21c-24.55,2.94 -23.08,2.5 -20.58,7.35c2.53,6.45 1.68,5.51 4.9,7.4c3.53,2.8 15.97,-2.1 22.29,-3.13c4.41,-0.59 11.91,-1.18 16.61,-1.18c5,-0.15 8.23,-0.74 7.64,-1.47c-1.32,-2.35 21.17,5.88 24.7,8.97c3.23,2.94 3.23,2.94 -0.44,1.91c-15.73,-3.82 -38.51,-1.76 -64.09,6.03c-6.47,1.91 -12.79,3.53 -13.97,3.53c-46.8,4.95 -91.57,17.87 -105.23,28.31c-10.26,-6.51 -3.35,-0.29 -11.88,-8.3l-6.45,-6.59z" fill="#000000" fill-rule="nonzero" id="svg_58" stroke-dashoffset="0" stroke-miterlimit="4"/>
  <path d="m2.52,254.59c0.62,-23.59 40.6,-48.79 62.96,-63.71c22.36,-14.92 40.97,-19.61 64.85,-27.15c23.88,-7.54 14.01,2.04 11.02,-3.3c-2.99,-5.34 -50.29,-11.65 -60.71,-12.39c-10.42,-0.74 -43.15,-10.02 -61.3,-3.51c-18.15,6.51 -16.25,7.89 -17.62,6.22c-1.37,-1.67 -6.52,-12.09 22.81,-19.78c29.34,-7.69 70.33,-6.08 98.32,2.68c27.98,8.76 22.51,9.3 25.31,10.47c7.94,0.74 -20.39,-40.93 -30.83,-53.35c-10.44,-12.42 -40.51,-44.28 -50.65,-47.25c-10.14,-2.97 -10.43,-10.94 24.62,-0.43c35.05,10.51 49.78,25.83 64.65,53.94c14.87,28.11 6.47,24.54 11.76,21.75c-1.63,3.4 -1.04,-33.51 1.75,-44.54c3.53,-14.26 12.5,-30.58 23.81,-42.78c10.73,-11.61 33.17,-25.42 50.27,-29.84c17.1,-4.42 -31.22,21.71 -51.48,75.65c-20.26,53.95 -19.89,82.95 -24.78,87.07c-4.89,4.12 -2.8,9.55 -10.92,12.1c-8.12,2.54 -32.37,-0.45 -77.44,25.78c-45.07,26.23 -75.5,64.07 -74.91,62.16l-1.5,-9.78l0.01,-0.01z" fill="#000000" fill-rule="nonzero" id="svg_74" stroke-dashoffset="0" stroke-miterlimit="4"/>
  <path d="m867.55,265.09c-19.24,-15.66 -22.99,-17.48 -40.16,-30.89c-28.18,-22.61 -31.78,-25.16 -50.57,-33.36c-73.82,-35.27 -55.01,-31.29 -66.53,-37.94c-6.07,-1.83 -4.18,-5.07 -1.93,-7.74c1.34,-7.06 1.11,-4.75 1.11,-7.84c0,-1.32 -1.03,-4.26 -2.21,-6.62c-7.92,-72.77 -7.97,-63.19 -16.89,-77.77c-48.66,-58.36 -51.45,-60.71 -51.45,-61.3c0,-3.82 12.5,0.88 26.46,10c9.85,3.23 36.16,31.31 39.25,37.48c8.53,17.64 9.85,21.61 11.47,35.13c0.88,8.09 -1.91,45.86 -3.68,47.63c-0.74,0.74 -1.47,3.82 -1.47,6.76c0,3.82 0.44,4.56 1.47,2.94c0.74,-1.18 0.28,-2.85 1.47,-6.17c3.1,-10.51 3.57,-12.7 5.47,-17.81c1.54,-5.23 10.42,-24.66 18.35,-36.28c13.38,-19.7 31.9,-32.05 52.63,-34.84c11.61,-1.62 21.01,-3.31 27.77,-1.25c0.32,2.98 -1.45,3.38 -5.27,6.54c-48.11,29.65 -40.26,27.65 -57.93,45.12c-35.44,47.5 -31.34,49.13 -32.22,50.6c12.79,-7.05 33.67,-15.43 49.98,-19.25c13.08,-3.09 37.63,-2.65 55.86,0.88c36.47,11.03 37.94,12.06 47.79,20.59c3.68,3.09 3.82,3.68 1.47,3.38c-110.36,-0.02 -116.17,3.82 -134.56,7.46c-9.18,2.55 -2.93,3.01 5.89,4.04c28.43,2.88 56.45,27.76 61.74,31.15c5.29,3.38 12.64,9.41 16.61,13.52c32.52,33.28 33.31,36.67 45.13,59.54c0,2.35 -0.77,0.66 -5.15,-3.68l0.09,-0.04l0.01,0.02z" fill="#000000" id="svg_76" stroke-opacity="null"/>
  <path d="m754.73,807.52c-14.41,-3.97 -20.58,-11.32 -21.32,-25.87c-0.59,-10.29 -0.59,-10.29 10.58,-10.29c11.17,0 11.17,0 11.17,4.41c0,2.35 0.74,5.88 1.62,7.94c3.23,7.06 14.85,5.29 16.91,-2.79c1.76,-7.06 -1.32,-11.47 -14.26,-20.14c-15.29,-10.29 -21.32,-17.05 -24.4,-27.49c-2.94,-10.29 -1.03,-22.79 5,-31.31c4.56,-6.76 9.41,-9.56 19.7,-11.47c19.7,-3.82 36.46,10.29 36.6,30.28c0,8.82 -0.88,9.41 -14.99,9.41c-9.11,0 -10,-0.88 -8.97,-8.23c1.03,-6.47 -1.62,-10.88 -6.76,-10.88c-4.85,0 -7.2,2.21 -8.38,8.38c-1.62,7.79 2.79,13.97 16.02,23.08c15.29,10.29 22.93,19.55 23.37,27.93c0.74,19.55 -3.38,28.96 -15.73,35.13c-6.62,3.23 -18.08,4.12 -26.17,1.91l0.01,0z" fill="#000000" fill-rule="nonzero" id="svg_4" stroke-dashoffset="0" stroke-miterlimit="4"/>
  <path d="m88.45,806.37c-1.47,-0.88 -1.91,-14.11 -1.91,-58.8c0,-57.77 0,-57.77 11.91,-58.21c11.91,-0.44 11.91,-0.44 14.55,7.35c2.21,7.06 9.56,25.14 12.2,30.58c0.74,1.18 2.5,6.03 3.97,10.73c1.62,4.56 3.38,8.38 3.97,8.38c0.59,0 1.18,-12.94 1.18,-28.67c0,-15.73 0.44,-28.67 1.18,-28.81c0.59,-0.15 4.85,-0.29 9.56,-0.59c6.91,-0.29 8.67,0 9.85,2.21c1.76,3.38 1.91,113.04 0.15,115.84c-0.74,1.32 -4.12,1.76 -11.03,1.47c-10,-0.44 -10,-0.44 -18.08,-21.02c-17.64,-44.84 -15.73,-43.81 -16.61,-9.7c-0.74,29.99 -0.74,29.99 -9.85,30.28c-5.15,0 -10.14,-0.29 -11.03,-1.03l-0.01,-0.01z" fill="#000000" fill-rule="nonzero" id="svg_6" stroke-dashoffset="0" stroke-miterlimit="4"/>
  <path d="m176.44,806.93c-0.59,-0.88 -1.47,-99.67 -1.03,-114.37c0.15,-2.79 0.88,-3.09 9.56,-2.79c5.15,0.15 10.14,0.74 11.03,1.32c2.21,1.47 2.35,110.1 0.15,114.22c-1.32,2.21 -3.23,2.79 -10.29,2.79c-4.7,0 -8.97,-0.59 -9.41,-1.18l-0.01,0.01z" fill="#000000" fill-rule="nonzero" id="svg_8" stroke-dashoffset="0" stroke-miterlimit="4"/>
  <path d="m230.5,805.34c-2.65,-1.47 -6.62,-5.29 -8.82,-8.38c-4.26,-5.44 -4.26,-5.44 -4.26,-47.63c0,-42.19 0,-42.19 4.12,-47.48c7.64,-10.14 21.76,-14.41 35.43,-10.73c16.17,4.12 23.96,13.97 25.43,31.9c0.88,10.29 0.88,10.29 -12.2,9.85c-13.08,-0.44 -13.08,-0.44 -13.52,-9.56c-0.29,-7.5 -1.03,-9.56 -3.68,-11.47c-4.26,-2.94 -7.79,-2.79 -11.32,0.74c-2.79,2.79 -2.94,4.85 -2.94,36.46c0,31.61 0.15,33.81 2.94,36.31c2.06,1.76 3.97,2.21 6.91,1.47c7.06,-1.76 9.26,-4.85 9.26,-13.08c0,-7.35 -0.15,-7.64 -4.7,-8.97c-4.7,-1.47 -4.85,-1.76 -5.29,-9.85c-0.44,-9.7 -3.53,-8.53 23.08,-8.97c12.35,-0.29 12.35,-0.29 11.47,26.17c-1.32,34.99 -1.18,34.55 -9.26,34.55c-5.44,0 -6.47,-0.44 -6.47,-2.94c0,-3.68 -0.74,-3.68 -6.32,0.29c-6.62,4.7 -23.37,5.44 -29.84,1.32l-0.02,0z" fill="#000000" fill-rule="nonzero" id="svg_10" stroke-dashoffset="0" stroke-miterlimit="4"/>
  <path d="m491.65,806.65c-2.65,-1.76 -1.32,-114.37 1.47,-115.98c1.03,-0.74 12.94,-1.18 26.46,-1.03c24.4,0.15 24.4,0.15 24.84,10.88c0.44,10.58 0.44,10.58 -6.62,10.73c-25.73,0.59 -23.23,-1.03 -23.67,14.26c-0.44,13.52 -0.44,13.52 12.2,13.52c12.64,0 12.64,0 12.2,10c-0.44,9.85 -0.44,9.85 -12.5,10.29c-12.2,0.44 -12.2,0.44 -12.2,23.81c0,20.87 -0.29,23.37 -2.5,24.11c-3.68,1.03 -17.64,0.59 -19.7,-0.59l0.02,0z" fill="#000000" fill-rule="nonzero" id="svg_12" stroke-dashoffset="0" stroke-miterlimit="4"/>
  <path d="m678.39,806.93c-11.47,-0.44 -11.47,-0.44 -11.47,-58.21c0,-57.77 0,-57.77 10,-58.65c5.44,-0.59 17.2,-1.03 26.17,-1.03c18.82,0 18.23,-0.44 18.23,13.38c0,7.2 -0.44,8.67 -2.5,8.82c-1.47,0.15 -8.53,0.44 -15.88,0.59c-13.23,0.44 -13.23,0.44 -13.23,11.91c0,11.61 0,11.61 7.35,11.91c4.12,0.29 10.14,0.74 13.67,1.32c6.17,0.74 6.17,0.74 6.17,10c0,9.26 0,9.26 -13.52,10.58c-13.67,1.32 -13.67,1.32 -14.11,7.94c-0.15,3.68 0.15,9.56 0.74,12.94c1.18,6.47 1.18,6.47 14.7,6.76c7.5,0.15 13.97,0.74 14.55,1.32c1.47,1.47 2.06,16.32 0.74,18.38c-1.03,1.76 -22.79,2.79 -41.6,2.06l-0.01,-0.02z" fill="#000000" fill-rule="nonzero" id="svg_14" stroke-dashoffset="0" stroke-miterlimit="4"/>
  <path d="m300.6,751.21c0,-30.58 0.44,-57.04 0.88,-58.8c0.88,-3.09 1.76,-3.38 10.88,-3.38c7.79,0 10.14,0.59 10.88,2.35c0.44,1.32 0.88,12.2 0.88,24.26c0,21.9 0,21.9 5.88,22.2c13.97,0.59 12.35,3.23 13.23,-21.9c0.44,-13.97 1.32,-22.93 2.5,-24.11c2.5,-2.35 19.7,-2.21 21.02,0.29c0.59,1.18 0.74,27.34 0.29,58.36c-0.74,56.15 -0.74,56.15 -12.2,56.15c-11.61,0 -11.61,0 -11.61,-23.52c0,-23.52 0,-23.52 -9.56,-23.52c-9.56,0 -9.56,0 -9.56,20.29c0,27.93 0.59,26.75 -12.64,26.75c-10.88,0 -10.88,0 -10.88,-55.42l0.01,0z" fill="#000000" fill-rule="nonzero" id="svg_16" stroke-dashoffset="0" stroke-miterlimit="4"/>
  <path d="m400.61,758.86c0,-47.78 0,-47.78 -6.47,-47.78c-3.53,0 -8.38,-0.44 -10.88,-0.88c-4.12,-0.88 -4.41,-1.32 -4.41,-7.64c0,-3.68 0.59,-8.23 1.32,-10.14c1.32,-3.38 1.32,-3.38 31.02,-3.09c29.84,0.44 29.84,0.44 30.28,11.17c0.44,10.58 0.44,10.58 -4.56,10.58c-2.79,0 -7.2,0.44 -9.7,0.88c-4.56,1.03 -4.56,1.03 -4.56,47.78c0,46.89 0,46.89 -11.03,46.89c-11.03,0 -11.03,0 -11.03,-47.78l0.02,0.01z" fill="#000000" fill-rule="nonzero" id="svg_18" stroke-dashoffset="0" stroke-miterlimit="4"/>
  <path d="m559.12,793.09c-1.32,-24.26 -1.18,-99.81 0.29,-101.72c0.88,-1.03 5,-1.47 11.03,-1.18c9.7,0.59 9.7,0.59 9.7,48.22c0,47.63 0,47.63 15.44,47.63c15.44,0 15.44,0 15.44,7.94c0,13.38 1.47,12.64 -26.46,12.64c-24.55,0 -24.55,0 -25.43,-13.52l-0.01,-0.01z" fill="#000000" fill-rule="nonzero" id="svg_20" stroke-dashoffset="0" stroke-miterlimit="4"/>
  <path d="m625.36,774.02c-0.29,-33.96 -0.29,-64.39 0.15,-76.44c0.15,-7.06 0.15,-7.06 11.17,-7.06c11.03,0 11.03,0 11.03,58.07c0,58.07 0,58.07 -11.03,58.07c-11.03,0 -11.03,0 -11.32,-32.63l0,-0.01z" fill="#000000" fill-rule="nonzero" id="svg_22" stroke-dashoffset="0" stroke-miterlimit="4"/>
 </g>
</svg>